<svg width="40" height="40" viewBox="0 0 40 40" fill="none" xmlns="http://www.w3.org/2000/svg">
<path d="M27.6641 8.13646H34.1732M30.9186 4.8819V11.391" stroke="#589CD9" stroke-width="3" stroke-linecap="round" stroke-linejoin="round"/>
<path d="M21.1564 5.45142C20.1134 5.07168 19.0117 4.87888 17.9018 4.88187C16.1113 4.87983 14.3548 5.37016 12.8242 6.29924C11.2937 7.22833 10.0481 8.56039 9.22362 10.1498C8.39918 11.7391 8.02764 13.5246 8.14965 15.3109C8.27166 17.0972 8.88251 18.8156 9.91541 20.2781C10.9483 21.7406 12.3635 22.8909 14.0061 23.6032C15.6488 24.3156 17.4557 24.5625 19.2293 24.317C21.0028 24.0716 22.6748 23.3431 24.0622 22.2114C25.4496 21.0797 26.4991 19.5882 27.0959 17.9001" stroke="#00378E" stroke-width="3" stroke-linecap="round" stroke-linejoin="round"/>
<path d="M24.8821 21.4639C26.6081 21.9248 28.1345 22.941 29.2256 24.3556C30.3167 25.7702 30.9119 27.5046 30.9193 29.2911V30.9184C30.9193 30.9184 27.6648 34.1729 17.9011 34.1729C8.13738 34.1729 4.88281 30.9184 4.88281 30.9184V29.2911C4.89022 27.5046 5.48541 25.7702 6.57652 24.3556C7.66762 22.941 9.19399 21.9248 10.92 21.4639" stroke="#00378E" stroke-width="3" stroke-linecap="round" stroke-linejoin="round"/>
</svg>
