<svg width="27" height="27" viewBox="0 0 27 27" fill="none" xmlns="http://www.w3.org/2000/svg">
<path d="M25 13.4375C25 19.8233 19.8233 25 13.4375 25V26.875C20.8589 26.875 26.875 20.8589 26.875 13.4375H25ZM13.4375 25C7.05171 25 1.875 19.8233 1.875 13.4375H0C0 20.8589 6.01618 26.875 13.4375 26.875V25ZM1.875 13.4375C1.875 7.05171 7.05171 1.875 13.4375 1.875V0C6.01618 0 0 6.01618 0 13.4375H1.875ZM17.8125 16.25C13.843 16.25 10.625 13.032 10.625 9.0625H8.75C8.75 14.0676 12.8074 18.125 17.8125 18.125V16.25ZM23.9691 12.7738C22.709 14.8591 20.4228 16.25 17.8125 16.25V18.125C21.1061 18.125 23.9884 16.3674 25.574 13.7434L23.9691 12.7738ZM10.625 9.0625C10.625 6.45228 12.0159 4.166 14.1013 2.90584L13.1316 1.30106C10.5076 2.88663 8.75 5.76886 8.75 9.0625H10.625ZM13.4375 1.875C13.3269 1.875 13.1971 1.8251 13.103 1.7271C13.0233 1.64409 13.0048 1.56555 13.0004 1.53379C12.9951 1.49484 12.9978 1.38196 13.1316 1.30106L14.1013 2.90584C14.7303 2.52581 14.9325 1.82998 14.8585 1.28284C14.7818 0.714075 14.3333 0 13.4375 0V1.875ZM25.574 13.7434C25.493 13.8773 25.3801 13.8799 25.3413 13.8746C25.3095 13.8703 25.2309 13.8518 25.1479 13.772C25.0499 13.6779 25 13.5481 25 13.4375H26.875C26.875 12.5418 26.1609 12.0933 25.5921 12.0165C25.045 11.9425 24.3491 12.1448 23.9691 12.7738L25.574 13.7434Z" fill="#040446"/>
</svg>
