<svg width="30" height="30" viewBox="0 0 30 30" fill="none" xmlns="http://www.w3.org/2000/svg">
<path fill-rule="evenodd" clip-rule="evenodd" d="M26.4016 3.38381C24.9371 1.91935 22.5629 1.91934 21.0984 3.38381L18.9986 5.48356L9.11611 15.366C8.95591 15.5263 8.84228 15.727 8.78732 15.9468L7.53732 20.9468C7.43083 21.3728 7.55564 21.8234 7.86611 22.1338C8.17659 22.4443 8.6272 22.5691 9.05317 22.4626L14.0531 21.2126C14.273 21.1576 14.4736 21.044 14.6339 20.8838L24.4445 11.0732L26.6161 8.90158C28.0806 7.43711 28.0806 5.06274 26.6161 3.59828L26.4016 3.38381ZM22.8661 5.15158C23.3542 4.66343 24.1458 4.66343 24.6339 5.15158L24.8484 5.36604C25.3365 5.8542 25.3365 6.64566 24.8484 7.13381L23.5777 8.40446L21.6335 6.38423L22.8661 5.15158ZM19.8654 8.15231L21.8096 10.1726L13.111 18.8713L10.468 19.532L11.1287 16.889L19.8654 8.15231ZM5 9.99993C5 9.30958 5.55965 8.74993 6.25 8.74993H12.5C13.1904 8.74993 13.75 8.19029 13.75 7.49993C13.75 6.80958 13.1904 6.24993 12.5 6.24993H6.25C4.17894 6.24993 2.5 7.92886 2.5 9.99993V23.7499C2.5 25.821 4.17894 27.4999 6.25 27.4999H20C22.0711 27.4999 23.75 25.821 23.75 23.7499V17.4999C23.75 16.8096 23.1904 16.2499 22.5 16.2499C21.8096 16.2499 21.25 16.8096 21.25 17.4999V23.7499C21.25 24.4403 20.6904 24.9999 20 24.9999H6.25C5.55965 24.9999 5 24.4403 5 23.7499V9.99993Z" fill="white"/>
</svg>
