<svg width="60" height="60" viewBox="0 0 60 60" fill="none" xmlns="http://www.w3.org/2000/svg">
<g clip-path="url(#clip0_486_267)">
<path d="M54.9966 27.5C54.9893 33.7967 52.452 39.8334 47.9412 44.2859C43.4304 48.7383 37.3146 51.2428 30.9354 51.25C30.4796 51.25 30.0425 51.0713 29.7202 50.7531C29.3978 50.435 29.2168 50.0035 29.2168 49.5536C29.2168 49.1036 29.3978 48.6722 29.7202 48.354C30.0425 48.0359 30.4796 47.8571 30.9354 47.8571C36.4035 47.8518 41.6461 45.7053 45.5127 41.8887C49.3792 38.0722 51.5538 32.8974 51.5593 27.5C51.5538 22.1026 49.3792 16.9278 45.5127 13.1113C41.6461 9.29474 36.4035 7.14825 30.9354 7.14286C25.4673 7.14825 20.2247 9.29474 16.3582 13.1113C12.4917 16.9278 10.317 22.1026 10.3116 27.5V28.4941L14.2507 24.6025C14.4104 24.4445 14.6 24.3192 14.8088 24.2337C15.0176 24.1481 15.2415 24.1041 15.4675 24.1041C15.6936 24.1041 15.9174 24.1481 16.1262 24.2337C16.335 24.3192 16.5247 24.4445 16.6843 24.6025C16.8444 24.7601 16.9714 24.9473 17.058 25.1534C17.1447 25.3595 17.1893 25.5804 17.1893 25.8036C17.1893 26.0267 17.1447 26.2477 17.058 26.4538C16.9714 26.6599 16.8444 26.8471 16.6843 27.0046L9.80973 33.7904C9.64853 33.9477 9.45836 34.0732 9.24945 34.1602C9.04105 34.2441 8.81798 34.2867 8.59293 34.2857C8.36764 34.2856 8.14457 34.2418 7.9364 34.1568C7.72749 34.0698 7.53732 33.9443 7.37612 33.787L0.501503 27.0012C0.341451 26.8437 0.214465 26.6565 0.127823 26.4504C0.0411806 26.2443 -0.00341797 26.0233 -0.00341797 25.8002C-0.00341797 25.577 0.0411806 25.3561 0.127823 25.15C0.214465 24.9439 0.341451 24.7567 0.501503 24.5991C0.661152 24.4411 0.850809 24.3158 1.05961 24.2303C1.26841 24.1447 1.49225 24.1007 1.71831 24.1007C1.94437 24.1007 2.16821 24.1447 2.37701 24.2303C2.58581 24.3158 2.77547 24.4411 2.93512 24.5991L6.87427 28.4941V27.5C6.88155 21.2033 9.4189 15.1666 13.9297 10.7141C18.4404 6.26172 24.5562 3.75718 30.9354 3.75C37.3146 3.75718 43.4304 6.26172 47.9412 10.7141C52.452 15.1666 54.9893 21.2033 54.9966 27.5ZM30.9354 13.9286C30.4796 13.9286 30.0425 14.1073 29.7202 14.4254C29.3978 14.7436 29.2168 15.1751 29.2168 15.625V27.5C29.2168 27.9499 29.3978 28.3814 29.7202 28.6996C30.0425 29.0177 30.4796 29.1964 30.9354 29.1964H42.966C43.4218 29.1964 43.859 29.0177 44.1813 28.6996C44.5036 28.3814 44.6847 27.9499 44.6847 27.5C44.6847 27.0501 44.5036 26.6186 44.1813 26.3004C43.859 25.9823 43.4218 25.8036 42.966 25.8036H32.6541V15.625C32.6541 15.1751 32.473 14.7436 32.1507 14.4254C31.8284 14.1073 31.3912 13.9286 30.9354 13.9286Z" fill="white"/>
</g>
<defs>
<clipPath id="clip0_486_267">
<rect width="60" height="60" fill="white"/>
</clipPath>
</defs>
</svg>
