<svg width="61" height="61" viewBox="0 0 61 61" fill="none" xmlns="http://www.w3.org/2000/svg">
<g clip-path="url(#clip0_533_513)">
<path d="M49.5625 40.0312H45.75V49.5625H49.5625V40.0312Z" fill="black"/>
<path d="M41.9375 30.5H38.125V49.5625H41.9375V30.5Z" fill="black"/>
<path d="M20.9688 49.5625C18.4418 49.5595 16.0192 48.5544 14.2324 46.7676C12.4456 44.9808 11.4405 42.5582 11.4375 40.0312H15.25C15.25 41.1623 15.5854 42.268 16.2138 43.2084C16.8422 44.1489 17.7353 44.8818 18.7803 45.3147C19.8252 45.7475 20.9751 45.8608 22.0844 45.6401C23.1938 45.4195 24.2127 44.8748 25.0125 44.075C25.8123 43.2752 26.357 42.2563 26.5776 41.1469C26.7983 40.0376 26.685 38.8877 26.2522 37.8428C25.8193 36.7978 25.0864 35.9047 24.1459 35.2763C23.2055 34.6479 22.0998 34.3125 20.9688 34.3125V30.5C23.4966 30.5 25.9209 31.5042 27.7084 33.2916C29.4958 35.0791 30.5 37.5034 30.5 40.0312C30.5 42.5591 29.4958 44.9834 27.7084 46.7709C25.9209 48.5583 23.4966 49.5625 20.9688 49.5625Z" fill="black"/>
<path d="M53.375 3.8125H7.625C6.61417 3.81351 5.64503 4.21551 4.93027 4.93027C4.21551 5.64503 3.81351 6.61417 3.8125 7.625V53.375C3.81366 54.3858 4.21571 55.3548 4.93044 56.0696C5.64517 56.7843 6.61422 57.1863 7.625 57.1875H53.375C54.3857 57.1861 55.3547 56.784 56.0693 56.0693C56.784 55.3547 57.1861 54.3857 57.1875 53.375V7.625C57.1863 6.61422 56.7843 5.64517 56.0696 4.93044C55.3548 4.21571 54.3858 3.81366 53.375 3.8125ZM53.375 20.9688H26.6875V7.625H53.375V20.9688ZM22.875 7.625V20.9688H7.625V7.625H22.875ZM7.625 53.375V24.7812H53.3763L53.3788 53.375H7.625Z" fill="black"/>
</g>
<defs>
<clipPath id="clip0_533_513">
<rect width="61" height="61" fill="white"/>
</clipPath>
</defs>
</svg>
