<svg width="60" height="60" viewBox="0 0 60 60" fill="none" xmlns="http://www.w3.org/2000/svg">
<path d="M24.2306 53.75L23.2788 46.1344C22.6092 45.9102 21.9225 45.5963 21.2188 45.1925C20.5154 44.7883 19.8865 44.3556 19.3319 43.8944L12.2788 46.875L6.51001 36.875L12.6106 32.2644C12.5531 31.8927 12.5123 31.5194 12.4881 31.1444C12.464 30.7694 12.4519 30.3958 12.4519 30.0238C12.4519 29.6683 12.464 29.3071 12.4881 28.94C12.5123 28.5729 12.5531 28.1715 12.6106 27.7356L6.51001 23.125L12.2788 13.1731L19.3075 16.13C19.9104 15.6525 20.554 15.2158 21.2381 14.82C21.9223 14.4242 22.5946 14.106 23.255 13.8656L24.2306 6.25H35.7694L36.7213 13.8894C37.4713 14.1619 38.1498 14.48 38.7569 14.8438C39.3644 15.2075 39.9775 15.6363 40.5963 16.13L47.7213 13.1731L53.49 23.125L47.2931 27.8075C47.3827 28.2113 47.4317 28.5888 47.44 28.94C47.4479 29.2908 47.4519 29.6442 47.4519 30C47.4519 30.3396 47.4438 30.685 47.4275 31.0363C47.4117 31.3871 47.3542 31.7885 47.255 32.2406L53.4038 36.875L47.6344 46.875L40.5963 43.87C39.9775 44.3638 39.3461 44.8004 38.7019 45.18C38.0577 45.56 37.3975 45.8702 36.7213 46.1106L35.7694 53.75H24.2306ZM27.5 50H32.4138L33.3125 43.3031C34.5883 42.9698 35.7542 42.4963 36.81 41.8825C37.8663 41.2683 38.8848 40.479 39.8656 39.5144L46.0769 42.125L48.5388 37.875L43.1156 33.7888C43.324 33.1413 43.4656 32.5065 43.5406 31.8844C43.6161 31.2627 43.6538 30.6346 43.6538 30C43.6538 29.3492 43.6161 28.721 43.5406 28.1156C43.4656 27.5098 43.324 26.891 43.1156 26.2594L48.5863 22.125L46.125 17.875L39.8413 20.5238C39.0046 19.6296 38.0023 18.8396 36.8344 18.1538C35.6661 17.4679 34.4842 16.9823 33.2888 16.6969L32.5 10H27.5388L26.7113 16.6731C25.4358 16.9744 24.2581 17.4358 23.1781 18.0575C22.0977 18.6796 21.0671 19.4808 20.0863 20.4613L13.875 17.875L11.4138 22.125L16.8125 26.1488C16.6042 26.7421 16.4583 27.3592 16.375 28C16.2917 28.6408 16.25 29.3154 16.25 30.0238C16.25 30.6746 16.2917 31.3125 16.375 31.9375C16.4583 32.5625 16.5963 33.1796 16.7888 33.7888L11.4138 37.875L13.875 42.125L20.0625 39.5C21.0113 40.4742 22.0256 41.2723 23.1056 41.8944C24.1861 42.516 25.38 42.9935 26.6875 43.3269L27.5 50ZM30.0288 37.5C32.1088 37.5 33.8788 36.77 35.3388 35.31C36.7988 33.85 37.5288 32.08 37.5288 30C37.5288 27.92 36.7988 26.15 35.3388 24.69C33.8788 23.23 32.1088 22.5 30.0288 22.5C27.9229 22.5 26.1465 23.23 24.6994 24.69C23.2523 26.15 22.5288 27.92 22.5288 30C22.5288 32.08 23.2523 33.85 24.6994 35.31C26.1465 36.77 27.9229 37.5 30.0288 37.5Z" fill="white"/>
</svg>
