<svg width="61" height="61" viewBox="0 0 61 61" fill="none" xmlns="http://www.w3.org/2000/svg">
<g clip-path="url(#clip0_578_894)">
<path d="M55.9128 27.9583C55.9054 34.36 53.3257 40.4973 48.7398 45.024C44.1538 49.5506 37.9361 52.0969 31.4506 52.1042C30.9872 52.1042 30.5427 51.9225 30.2151 51.599C29.8874 51.2756 29.7033 50.8369 29.7033 50.3795C29.7033 49.922 29.8874 49.4834 30.2151 49.1599C30.5427 48.8365 30.9872 48.6548 31.4506 48.6548C37.0098 48.6493 42.3398 46.467 46.2708 42.5869C50.2018 38.7067 52.4126 33.4457 52.4182 27.9583C52.4126 22.471 50.2018 17.2099 46.2708 13.3298C42.3398 9.44965 37.0098 7.26738 31.4506 7.2619C25.8913 7.26738 20.5614 9.44965 16.6304 13.3298C12.6994 17.2099 10.4886 22.471 10.483 27.9583V28.969L14.4878 25.0125C14.6501 24.8519 14.8429 24.7245 15.0552 24.6375C15.2675 24.5506 15.4951 24.5058 15.7249 24.5058C15.9547 24.5058 16.1823 24.5506 16.3946 24.6375C16.6069 24.7245 16.7997 24.8519 16.962 25.0125C17.1247 25.1728 17.2538 25.3631 17.3419 25.5726C17.43 25.7821 17.4753 26.0068 17.4753 26.2336C17.4753 26.4605 17.43 26.6851 17.3419 26.8947C17.2538 27.1042 17.1247 27.2945 16.962 27.4547L9.9728 34.3535C9.80891 34.5135 9.61557 34.6411 9.40318 34.7295C9.1913 34.8148 8.96452 34.8582 8.73571 34.8571C8.50667 34.8571 8.27988 34.8125 8.06824 34.7261C7.85585 34.6377 7.66251 34.5101 7.49862 34.3501L0.509431 27.4513C0.346711 27.2911 0.217608 27.1007 0.129522 26.8912C0.0414356 26.6817 -0.00390625 26.457 -0.00390625 26.2302C-0.00390625 26.0033 0.0414356 25.7787 0.129522 25.5692C0.217608 25.3596 0.346711 25.1693 0.509431 25.0091C0.67174 24.8485 0.864558 24.721 1.07684 24.6341C1.28912 24.5472 1.51669 24.5024 1.74652 24.5024C1.97635 24.5024 2.20392 24.5472 2.4162 24.6341C2.62848 24.721 2.8213 24.8485 2.98361 25.0091L6.98841 28.969V27.9583C6.99581 21.5567 9.57545 15.4194 14.1614 10.8927C18.7473 6.36608 24.9651 3.8198 31.4506 3.8125C37.9361 3.8198 44.1538 6.36608 48.7398 10.8927C53.3257 15.4194 55.9054 21.5567 55.9128 27.9583ZM31.4506 14.1607C30.9872 14.1607 30.5427 14.3424 30.2151 14.6659C29.8874 14.9893 29.7033 15.428 29.7033 15.8854V27.9583C29.7033 28.4158 29.8874 28.8544 30.2151 29.1779C30.5427 29.5013 30.9872 29.683 31.4506 29.683H43.6817C44.1451 29.683 44.5895 29.5013 44.9172 29.1779C45.2449 28.8544 45.429 28.4158 45.429 27.9583C45.429 27.5009 45.2449 27.0622 44.9172 26.7388C44.5895 26.4153 44.1451 26.2336 43.6817 26.2336H33.1979V15.8854C33.1979 15.428 33.0138 14.9893 32.6861 14.6659C32.3584 14.3424 31.914 14.1607 31.4506 14.1607Z" fill="black"/>
</g>
<defs>
<clipPath id="clip0_578_894">
<rect width="61" height="61" fill="white"/>
</clipPath>
</defs>
</svg>
