<svg width="60" height="60" viewBox="0 0 60 60" fill="none" xmlns="http://www.w3.org/2000/svg">
<g clip-path="url(#clip0_486_258)">
<path d="M48.75 39.375H45V48.75H48.75V39.375Z" fill="white"/>
<path d="M41.25 30H37.5V48.75H41.25V30Z" fill="white"/>
<path d="M20.625 48.75C18.1395 48.7471 15.7566 47.7584 13.9991 46.0009C12.2416 44.2434 11.2529 41.8605 11.25 39.375H15C15 40.4875 15.3299 41.5751 15.948 42.5001C16.5661 43.4251 17.4446 44.1461 18.4724 44.5718C19.5002 44.9976 20.6312 45.109 21.7224 44.8919C22.8135 44.6749 23.8158 44.1391 24.6025 43.3525C25.3891 42.5658 25.9249 41.5635 26.1419 40.4724C26.359 39.3812 26.2476 38.2502 25.8218 37.2224C25.3961 36.1946 24.6751 35.3161 23.7501 34.698C22.8251 34.0799 21.7375 33.75 20.625 33.75V30C23.1114 30 25.496 30.9877 27.2541 32.7459C29.0123 34.504 30 36.8886 30 39.375C30 41.8614 29.0123 44.246 27.2541 46.0041C25.496 47.7623 23.1114 48.75 20.625 48.75Z" fill="white"/>
<path d="M52.5 3.75H7.5C6.50574 3.75099 5.55249 4.1464 4.84945 4.84945C4.1464 5.55249 3.75099 6.50574 3.75 7.5V52.5C3.75114 53.4942 4.1466 54.4474 4.84961 55.1504C5.55262 55.8534 6.50579 56.2489 7.5 56.25H52.5C53.4942 56.2487 54.4472 55.8531 55.1502 55.1502C55.8531 54.4472 56.2487 53.4942 56.25 52.5V7.5C56.2489 6.50579 55.8534 5.55262 55.1504 4.84961C54.4474 4.1466 53.4942 3.75114 52.5 3.75ZM52.5 20.625H26.25V7.5H52.5V20.625ZM22.5 7.5V20.625H7.5V7.5H22.5ZM7.5 52.5V24.375H52.5013L52.5037 52.5H7.5Z" fill="white"/>
</g>
<defs>
<clipPath id="clip0_486_258">
<rect width="60" height="60" fill="white"/>
</clipPath>
</defs>
</svg>
