<svg width="61" height="61" viewBox="0 0 61 61" fill="none" xmlns="http://www.w3.org/2000/svg">
<path d="M24.6351 54.6458L23.6674 46.9032C22.9866 46.6753 22.2885 46.3562 21.573 45.9457C20.858 45.5348 20.2185 45.0948 19.6547 44.6259L12.484 47.6562L6.61914 37.4895L12.8214 32.8021C12.763 32.4242 12.7215 32.0447 12.6969 31.6634C12.6723 31.2822 12.66 30.9024 12.66 30.5241C12.66 30.1628 12.6723 29.7955 12.6969 29.4223C12.7215 29.0491 12.763 28.6409 12.8214 28.1978L6.61914 23.5104L12.484 13.3926L19.6299 16.3988C20.2429 15.9133 20.8972 15.4694 21.5927 15.067C22.2883 14.6645 22.9718 14.3411 23.6432 14.0967L24.6351 6.35413H36.3662L37.3339 14.1208C38.0964 14.3979 38.7863 14.7213 39.4035 15.0911C40.0211 15.4609 40.6444 15.8968 41.2735 16.3988L48.5173 13.3926L54.3821 23.5104L48.082 28.2709C48.1731 28.6814 48.2228 29.0652 48.2313 29.4223C48.2394 29.779 48.2434 30.1382 48.2434 30.5C48.2434 30.8452 48.2351 31.1964 48.2186 31.5535C48.2025 31.9102 48.1441 32.3183 48.0432 32.7779L54.2945 37.4895L48.4289 47.6562L41.2735 44.6011C40.6444 45.1031 40.0024 45.5471 39.3475 45.933C38.6926 46.3193 38.0214 46.6347 37.3339 46.8791L36.3662 54.6458H24.6351ZM27.959 50.8333H32.9546L33.8684 44.0248C35.1654 43.6859 36.3507 43.2045 37.4241 42.5805C38.498 41.9561 39.5335 41.1536 40.5307 40.1729L46.8455 42.827L49.3484 38.5062L43.8349 34.3519C44.0467 33.6936 44.1907 33.0482 44.2669 32.4157C44.3436 31.7837 44.382 31.1451 44.382 30.5C44.382 29.8383 44.3436 29.1997 44.2669 28.5842C44.1907 27.9683 44.0467 27.3392 43.8349 26.697L49.3967 22.4937L46.8944 18.1729L40.5059 20.8658C39.6553 19.9567 38.6363 19.1535 37.4489 18.4563C36.2611 17.759 35.0595 17.2653 33.8442 16.9751L33.0423 10.1666H27.9984L27.1571 16.951C25.8604 17.2572 24.6631 17.7264 23.5651 18.3584C22.4666 18.9909 21.4188 19.8055 20.4217 20.8022L14.1069 18.1729L11.6046 22.4937L17.0933 26.5845C16.8815 27.1877 16.7333 27.8151 16.6486 28.4666C16.5638 29.1181 16.5215 29.804 16.5215 30.5241C16.5215 31.1858 16.5638 31.8343 16.6486 32.4698C16.7333 33.1052 16.8735 33.7325 17.0692 34.3519L11.6046 38.5062L14.1069 42.827L20.3975 40.1583C21.3621 41.1487 22.3934 41.9601 23.4914 42.5926C24.5898 43.2246 25.8036 43.7101 27.1329 44.049L27.959 50.8333ZM30.5299 38.125C32.6445 38.125 34.444 37.3828 35.9284 35.8985C37.4127 34.4141 38.1549 32.6146 38.1549 30.5C38.1549 28.3853 37.4127 26.5858 35.9284 25.1015C34.444 23.6171 32.6445 22.875 30.5299 22.875C28.3889 22.875 26.5829 23.6171 25.1117 25.1015C23.6405 26.5858 22.9049 28.3853 22.9049 30.5C22.9049 32.6146 23.6405 34.4141 25.1117 35.8985C26.5829 37.3828 28.3889 38.125 30.5299 38.125Z" fill="black"/>
</svg>
