<svg width="30" height="30" viewBox="0 0 30 30" fill="none" xmlns="http://www.w3.org/2000/svg">
<g clip-path="url(#clip0_359_364)">
<path d="M27.1875 5.625H24.375C24.1264 5.625 23.8879 5.72377 23.7121 5.89959C23.5363 6.0754 23.4375 6.31386 23.4375 6.5625C23.4375 6.81114 23.5363 7.0496 23.7121 7.22541C23.8879 7.40123 24.1264 7.5 24.375 7.5H27.1875C27.4362 7.5 27.6746 7.59877 27.8504 7.77459C28.0262 7.9504 28.125 8.18886 28.125 8.4375V13.2853C28.1251 13.4086 28.1009 13.5306 28.0538 13.6445C28.0066 13.7584 27.9375 13.8619 27.8503 13.9491L25.1991 16.6003C25.1119 16.6875 25.0084 16.7566 24.8946 16.8038C24.7807 16.8509 24.6586 16.8751 24.5353 16.875H5.4647C5.34144 16.8751 5.21937 16.8509 5.10547 16.8038C4.99158 16.7566 4.8881 16.6875 4.80095 16.6003L2.1497 13.9491C2.06253 13.8619 1.9934 13.7584 1.94626 13.6445C1.89913 13.5306 1.87492 13.4086 1.87501 13.2853V8.4375C1.87501 8.18886 1.97379 7.9504 2.1496 7.77459C2.32542 7.59877 2.56387 7.5 2.81251 7.5H20.625C20.8737 7.5 21.1121 7.40123 21.2879 7.22541C21.4637 7.0496 21.5625 6.81114 21.5625 6.5625V3.75C21.5625 3.00408 21.2662 2.28871 20.7388 1.76126C20.2113 1.23382 19.4959 0.9375 18.75 0.9375H11.25C10.5041 0.9375 9.78872 1.23382 9.26128 1.76126C8.73383 2.28871 8.43751 3.00408 8.43751 3.75V5.625H2.81251C2.06659 5.625 1.35122 5.92132 0.823776 6.44876C0.29633 6.97621 1.41434e-05 7.69158 1.41434e-05 8.4375V13.2853C-0.00116238 13.655 0.0710751 14.0211 0.212536 14.3626C0.353996 14.7041 0.561863 15.0142 0.824077 15.2747L3.47533 17.9259C3.73586 18.1882 4.04587 18.396 4.38737 18.5375C4.72887 18.6789 5.09506 18.7512 5.4647 18.75H24.5353C24.905 18.7512 25.2712 18.6789 25.6127 18.5375C25.9542 18.396 26.2642 18.1882 26.5247 17.9259L27.1875 17.2631V26.25C27.1875 26.4986 27.0887 26.7371 26.9129 26.9129C26.7371 27.0887 26.4987 27.1875 26.25 27.1875H3.75001C3.50137 27.1875 3.26292 27.0887 3.0871 26.9129C2.91129 26.7371 2.81251 26.4986 2.81251 26.25V19.6875C2.81251 19.4389 2.71374 19.2004 2.53793 19.0246C2.36211 18.8488 2.12365 18.75 1.87501 18.75C1.62637 18.75 1.38792 18.8488 1.2121 19.0246C1.03629 19.2004 0.937514 19.4389 0.937514 19.6875V26.25C0.93974 26.9952 1.23677 27.7093 1.76374 28.2363C2.2907 28.7632 3.00478 29.0603 3.75001 29.0625H26.25C26.9953 29.0603 27.7093 28.7632 28.2363 28.2363C28.7633 27.7093 29.0603 26.9952 29.0625 26.25V15.3881L29.176 15.2747C29.4382 15.0142 29.646 14.7041 29.7875 14.3626C29.929 14.0211 30.0012 13.655 30 13.2853V8.4375C30 7.69158 29.7037 6.97621 29.1763 6.44876C28.6488 5.92132 27.9334 5.625 27.1875 5.625ZM10.3125 3.75C10.3125 3.50136 10.4113 3.2629 10.5871 3.08709C10.7629 2.91127 11.0014 2.8125 11.25 2.8125H18.75C18.9987 2.8125 19.2371 2.91127 19.4129 3.08709C19.5887 3.2629 19.6875 3.50136 19.6875 3.75V5.625H10.3125V3.75Z" fill="#040446"/>
<path d="M9.375 15H7.5C6.98223 15 6.5625 15.4197 6.5625 15.9375V19.6875C6.5625 20.2053 6.98223 20.625 7.5 20.625H9.375C9.89277 20.625 10.3125 20.2053 10.3125 19.6875V15.9375C10.3125 15.4197 9.89277 15 9.375 15Z" fill="#040446"/>
<path d="M22.5 15H20.625C20.1072 15 19.6875 15.4197 19.6875 15.9375V19.6875C19.6875 20.2053 20.1072 20.625 20.625 20.625H22.5C23.0178 20.625 23.4375 20.2053 23.4375 19.6875V15.9375C23.4375 15.4197 23.0178 15 22.5 15Z" fill="#040446"/>
</g>
<defs>
<clipPath id="clip0_359_364">
<rect width="30" height="30" fill="white"/>
</clipPath>
</defs>
</svg>
