<svg width="32" height="32" viewBox="0 0 32 32" fill="none" xmlns="http://www.w3.org/2000/svg">
<path d="M10.9092 14.2703H8.00013C7.26377 14.2703 6.66682 14.8647 6.66681 15.6011C6.66676 17.7977 6.66669 22.2363 6.66684 25.2252C6.667 28.5756 11.8483 29.3333 16 29.3333C20.1519 29.3333 25.3334 28.5756 25.3334 25.2252C25.3334 22.2364 25.3334 17.7977 25.3334 15.6011C25.3334 14.8647 24.7364 14.2703 24 14.2703H21.091M10.9092 14.2703C10.9092 14.2703 10.9093 10.8469 10.9092 8.79279C10.9092 6.32761 12.9452 4 16 4C19.055 4 21.091 6.32761 21.091 8.79279C21.091 10.8469 21.091 14.2703 21.091 14.2703M10.9092 14.2703H21.091" stroke="#040446" stroke-width="2" stroke-linecap="round" stroke-linejoin="round"/>
<path fill-rule="evenodd" clip-rule="evenodd" d="M17.3333 22.1575V24C17.3333 24.7364 16.7364 25.3334 16 25.3334C15.2636 25.3334 14.6667 24.7364 14.6667 24V22.1575C14.2575 21.7912 14 21.259 14 20.6667C14 19.5622 14.8955 18.6667 16 18.6667C17.1045 18.6667 18 19.5622 18 20.6667C18 21.259 17.7425 21.7912 17.3333 22.1575Z" fill="black"/>
</svg>
