<svg xmlns="http://www.w3.org/2000/svg" xmlns:xlink="http://www.w3.org/1999/xlink" width="2000" zoomAndPan="magnify" viewBox="0 0 1500 1499.999933" height="2000" preserveAspectRatio="xMidYMid meet" version="1.0"><defs><g/><clipPath id="828afcd45a"><path d="M 266.496094 340.355469 L 318.605469 340.355469 L 318.605469 392.144531 L 266.496094 392.144531 Z M 266.496094 340.355469 " clip-rule="nonzero"/></clipPath><clipPath id="565ec6ed80"><path d="M 0.496094 0.355469 L 52.605469 0.355469 L 52.605469 52.144531 L 0.496094 52.144531 Z M 0.496094 0.355469 " clip-rule="nonzero"/></clipPath><clipPath id="0ff99e3ff8"><rect x="0" width="53" y="0" height="53"/></clipPath><clipPath id="eec8a75f51"><path d="M 620.421875 340.355469 L 871.570312 340.355469 L 871.570312 392.144531 L 620.421875 392.144531 Z M 620.421875 340.355469 " clip-rule="nonzero"/></clipPath><clipPath id="5089165bef"><path d="M 0.421875 0.355469 L 251.570312 0.355469 L 251.570312 52.144531 L 0.421875 52.144531 Z M 0.421875 0.355469 " clip-rule="nonzero"/></clipPath><clipPath id="270f41df37"><rect x="0" width="252" y="0" height="53"/></clipPath><clipPath id="db5460bb30"><rect x="0" width="1202" y="0" height="488"/></clipPath><clipPath id="937ed46e36"><path d="M 475.925781 606.234375 L 1187.121094 606.234375 L 1187.121094 658.023438 L 475.925781 658.023438 Z M 475.925781 606.234375 " clip-rule="nonzero"/></clipPath><clipPath id="6e6b5630f6"><path d="M 0.925781 0.234375 L 712.121094 0.234375 L 712.121094 52.023438 L 0.925781 52.023438 Z M 0.925781 0.234375 " clip-rule="nonzero"/></clipPath><clipPath id="2f8f4c108e"><rect x="0" width="713" y="0" height="53"/></clipPath></defs><g transform="matrix(1, 0, 0, 1, 136, 506)"><g clip-path="url(#db5460bb30)"><g fill="#164194" fill-opacity="1"><g transform="translate(1.403585, 391.222773)"><g><path d="M 364.300781 -291.601562 L 105.1875 -291.601562 C 62.136719 -291.601562 19.902344 -256.675781 19.902344 -213.21875 L 19.902344 -198.597656 C 19.902344 -151.894531 58.078125 -120.621094 105.1875 -120.621094 L 278.199219 -120.214844 C 298.101562 -120.214844 308.253906 -111.6875 308.253906 -94.222656 L 308.253906 -79.195312 C 308.253906 -64.574219 292.820312 -52.390625 278.199219 -52.390625 L 19.089844 -52.390625 L 19.089844 -0.40625 L 278.199219 -0.40625 C 320.84375 -0.40625 363.082031 -34.519531 363.082031 -79.195312 L 363.082031 -94.222656 C 363.082031 -140.117188 324.90625 -172.199219 278.199219 -172.199219 L 105.1875 -172.605469 C 85.289062 -172.605469 75.132812 -181.136719 75.132812 -198.597656 L 75.132812 -213.21875 C 75.132812 -227.433594 90.566406 -239.617188 105.1875 -239.617188 L 364.300781 -239.617188 Z M 364.300781 -291.601562 "/></g></g></g><g fill="#164194" fill-opacity="1"><g transform="translate(286.123328, 391.222773)"><g><path d="M 305.816406 -212.8125 C 292.414062 -265.203125 263.984375 -291.195312 220.53125 -291.195312 L 146.613281 -291.195312 C 103.15625 -291.195312 75.132812 -265.203125 61.730469 -212.8125 L 6.902344 0 L 65.386719 0 L 120.214844 -212.8125 C 124.683594 -230.277344 134.835938 -239.210938 150.269531 -239.210938 L 217.28125 -239.210938 C 231.902344 -239.210938 241.648438 -230.277344 246.523438 -212.8125 L 257.488281 -172.605469 L 131.585938 -172.605469 L 118.996094 -118.996094 L 271.703125 -118.996094 L 302.164062 0 L 360.644531 0 Z M 305.816406 -212.8125 "/></g></g></g><g fill="#164194" fill-opacity="1"><g transform="translate(555.351293, 391.222773)"><g><path d="M 362.269531 -93.003906 C 362.269531 -136.460938 320.84375 -171.792969 277.386719 -171.792969 L 105.1875 -171.792969 L 105.1875 -119.402344 L 277.386719 -119.402344 C 292.007812 -119.402344 307.847656 -107.625 307.847656 -93.003906 L 307.847656 -79.195312 C 307.847656 -61.730469 297.695312 -53.203125 277.386719 -53.203125 L 105.1875 -53.203125 C 85.289062 -53.203125 75.132812 -61.730469 75.132812 -79.195312 L 75.132812 -213.21875 C 75.132812 -227.433594 90.566406 -239.617188 105.1875 -239.617188 L 357.800781 -239.617188 L 357.800781 -291.601562 L 105.1875 -291.601562 C 62.136719 -291.601562 19.902344 -256.675781 19.902344 -213.21875 L 19.902344 -79.195312 C 19.902344 -32.898438 58.078125 -0.40625 105.1875 -0.40625 L 277.386719 -0.40625 C 324.09375 -0.40625 362.269531 -32.898438 362.269531 -79.195312 Z M 362.269531 -93.003906 "/></g></g></g><g fill="#164194" fill-opacity="1"><g transform="translate(838.503366, 391.222773)"><g><path d="M 305.816406 -212.8125 C 292.414062 -265.203125 263.984375 -291.195312 220.53125 -291.195312 L 146.613281 -291.195312 C 103.15625 -291.195312 75.132812 -265.203125 61.730469 -212.8125 L 6.902344 0 L 65.386719 0 L 120.214844 -212.8125 C 124.683594 -230.277344 134.835938 -239.210938 150.269531 -239.210938 L 217.28125 -239.210938 C 231.902344 -239.210938 241.648438 -230.277344 246.523438 -212.8125 L 257.488281 -172.605469 L 131.585938 -172.605469 L 118.996094 -118.996094 L 271.703125 -118.996094 L 302.164062 0 L 360.644531 0 Z M 305.816406 -212.8125 "/></g></g></g><g clip-path="url(#828afcd45a)"><g transform="matrix(1, 0, 0, 1, 266, 340)"><g clip-path="url(#0ff99e3ff8)"><g clip-path="url(#565ec6ed80)"><path fill="#164194" d="M 0.496094 0.355469 L 52.6875 0.355469 L 52.6875 52.144531 L 0.496094 52.144531 Z M 0.496094 0.355469 " fill-opacity="1" fill-rule="nonzero"/></g></g></g></g><g clip-path="url(#eec8a75f51)"><g transform="matrix(1, 0, 0, 1, 620, 340)"><g clip-path="url(#270f41df37)"><g clip-path="url(#5089165bef)"><path fill="#164194" d="M 0.421875 0.355469 L 251.671875 0.355469 L 251.671875 52.144531 L 0.421875 52.144531 Z M 0.421875 0.355469 " fill-opacity="1" fill-rule="nonzero"/></g></g></g></g></g></g><g clip-path="url(#937ed46e36)"><g transform="matrix(1, 0, 0, 1, 475, 606)"><g clip-path="url(#2f8f4c108e)"><g clip-path="url(#6e6b5630f6)"><path fill="#164194" d="M 0.925781 0.234375 L 712.195312 0.234375 L 712.195312 52.023438 L 0.925781 52.023438 Z M 0.925781 0.234375 " fill-opacity="1" fill-rule="nonzero"/></g></g></g></g></svg>