<svg width="26" height="26" viewBox="0 0 26 26" fill="none" xmlns="http://www.w3.org/2000/svg">
<path fill-rule="evenodd" clip-rule="evenodd" d="M17.5 10C17.5 14.1422 14.1422 17.5 10 17.5C5.85787 17.5 2.5 14.1422 2.5 10C2.5 5.85787 5.85787 2.5 10 2.5C14.1422 2.5 17.5 5.85787 17.5 10ZM16.1322 17.8998C14.4387 19.2162 12.3108 20 10 20C4.47715 20 0 15.5228 0 10C0 4.47715 4.47715 0 10 0C15.5228 0 20 4.47715 20 10C20 12.3108 19.2162 14.4387 17.8998 16.132L25.884 24.1162L24.1162 25.8838L16.1322 17.8998Z" fill="#040446"/>
</svg>
