<svg width="130" height="130" viewBox="0 0 130 130" fill="none" xmlns="http://www.w3.org/2000/svg">
<rect x="2" y="2" width="126" height="126" rx="63" stroke="#164194" stroke-width="4"/>
<path fill-rule="evenodd" clip-rule="evenodd" d="M84.5008 52C84.5008 62.7696 75.7703 71.5 65.0008 71.5C54.2312 71.5 45.5008 62.7696 45.5008 52C45.5008 41.2304 54.2312 32.5 65.0008 32.5C75.7703 32.5 84.5008 41.2304 84.5008 52ZM78.0008 52C78.0008 59.1797 72.1805 65 65.0008 65C57.8211 65 52.0008 59.1797 52.0008 52C52.0008 44.8203 57.8211 39 65.0008 39C72.1805 39 78.0008 44.8203 78.0008 52Z" fill="#164194"/>
<path d="M65.0008 81.25C43.959 81.25 26.0309 93.6923 19.2017 111.124C20.8653 112.776 22.6179 114.339 24.4515 115.804C29.5369 99.8 45.4901 87.75 65.0008 87.75C84.5115 87.75 100.465 99.8 105.55 115.804C107.384 114.339 109.136 112.776 110.8 111.124C103.971 93.6924 86.0426 81.25 65.0008 81.25Z" fill="#164194"/>
</svg>
