<svg width="88" height="88" viewBox="0 0 88 88" fill="none" xmlns="http://www.w3.org/2000/svg">
<g filter="url(#filter0_d_486_240)">
<rect x="4" width="80" height="80" rx="40" fill="#B4CFEA"/>
<path fill-rule="evenodd" clip-rule="evenodd" d="M56.0005 32C56.0005 38.6274 50.6279 44 44.0005 44C37.3731 44 32.0005 38.6274 32.0005 32C32.0005 25.3726 37.3731 20 44.0005 20C50.6279 20 56.0005 25.3726 56.0005 32ZM52.0005 32C52.0005 36.4183 48.4188 40 44.0005 40C39.5822 40 36.0005 36.4183 36.0005 32C36.0005 27.5817 39.5822 24 44.0005 24C48.4188 24 52.0005 27.5817 52.0005 32Z" fill="#4F378A"/>
<path d="M44.0005 50C31.0517 50 20.019 57.6568 15.8164 68.3841C16.8402 69.4007 17.9187 70.3623 19.0471 71.2641C22.1765 61.4154 31.9939 54 44.0005 54C56.0071 54 65.8245 61.4154 68.9539 71.2641C70.0823 70.3623 71.1608 69.4007 72.1846 68.3841C67.982 57.6568 56.9493 50 44.0005 50Z" fill="#4F378A"/>
</g>
<defs>
<filter id="filter0_d_486_240" x="0" y="0" width="88" height="88" filterUnits="userSpaceOnUse" color-interpolation-filters="sRGB">
<feFlood flood-opacity="0" result="BackgroundImageFix"/>
<feColorMatrix in="SourceAlpha" type="matrix" values="0 0 0 0 0 0 0 0 0 0 0 0 0 0 0 0 0 0 127 0" result="hardAlpha"/>
<feOffset dy="4"/>
<feGaussianBlur stdDeviation="2"/>
<feComposite in2="hardAlpha" operator="out"/>
<feColorMatrix type="matrix" values="0 0 0 0 0 0 0 0 0 0 0 0 0 0 0 0 0 0 0.25 0"/>
<feBlend mode="normal" in2="BackgroundImageFix" result="effect1_dropShadow_486_240"/>
<feBlend mode="normal" in="SourceGraphic" in2="effect1_dropShadow_486_240" result="shape"/>
</filter>
</defs>
</svg>
